<mxfile host="Electron" agent="Mozilla/5.0 (X11; Linux x86_64) AppleWebKit/537.36 (KHTML, like Gecko) draw.io/24.7.17 Chrome/128.0.6613.36 Electron/32.0.1 Safari/537.36" version="24.7.17">
  <diagram name="Page-1" id="IQsDJF1IO0IT34wKaj9F">
    <mxGraphModel dx="1114" dy="702" grid="0" gridSize="10" guides="1" tooltips="1" connect="1" arrows="1" fold="1" page="1" pageScale="1" pageWidth="1169" pageHeight="827" math="0" shadow="0">
      <root>
        <mxCell id="0" />
        <mxCell id="1" parent="0" />
        <mxCell id="DTVYAWzvXYTGudNab_NH-102" value="" style="shape=stencil(lZ3ZriNHkkS/pl6JjD3iuWf6PwSo1BJaoxJK6ln+fjwgkLw0S57s+1ZLGjNj83A3376Uv/3x8w+/f/2Sjz/+/P7tn1//55cf//z5S/mPLzn/8tvPX7//8mf86Uv5zy/lbz99+/71H9+//eu3H//6++8/7Cf3n/7r23/vX/jfv3DHLa0Nysf/yT/8/a/Hf/3lt5fH6/HyeLrVQo/3+vJ4vi389ZVfHq+3AY+nW+4vj/fb7PR4fx3quqXx/vF8S6/fnmKs+HxPr8+X24S5KbdDfr/dFvx+uc/04/lxW5WeH6/DTes+vafP1/tsPNYq3Vaj55usbb0diZ5fr/OTG35/u2X5/XHfTW+eb69bM0+c/3Yb8vy6DRhvu2+u+/PluE34nn47Xn+/xI6C7+m3JL9fLn6/zNfn+y0f9LzszzJvDY5Lv8/e4zAetwHrO26HPJ9vFfbbuKX2+nxBWTJu5XU+a7u/8c3zVYRJjGji86/npcb5gvkct/Z6Xuq8eH68zn87cH+O23z9/hYSBp9fr/Pf6v0EnT4/b4f8frt1mJ95S/L8uO/AN8/L+W0sb6fu537cCuzPqfPfE+7PqfPfyy3DfE69jHpIPPj9dcvy+w2/Z93q6/7v/Tbge9aty/MD5cOy748RwXql43a8HoC+cAABkBUbISHgxAegv4q4ke6b9h1gvn7SKHcpcA5It0M+qaLQDYDs0gDQLbCVAAG0WyWtI+m6jX6XfO8A0wD4SXGvyKBDNtGgs4q6EYeVtka+78wPAJKlAVgyS7F9aWs8zuIdMI/7eXoHqEkBuA5FxzD5/g7Aet2tMzYLrUO1MSQ80ekhUB6AWEra3o+9+QGQadBNL+UNIJW63WXuBwCeuKZidQNopdtdCv27bwi1Jn9qDF0102vA/BxgqO6+ATTocd85H7ZGowM0bGuEtIXbM5m6ECcu0SfF/S9iZt4vgHeALFIjVEpauKlHNERlpwM0TS5VVEkC0GXQ+X7FvAPIbh0HGhUBmHKrP0b1DrBe1dS4pi/WQc5D6A2LxrD0jgvFZNI6rLtd8ACwGR6AIqpGuhsn7wBNdM94J+3W0CxexxDK5IB1yIdpqx21Qyc22sNAfAcor/pk6M8NZikAImZauZuU7wBicYZGTxb/5kNkDAlv0bDYhbMIG4P2UgDEqAoAGQ35wYE8rJ7FrEi6y4gPZhId0QAMs8NwHZLOUhh6+EmmL4UlSZZnAGRr1HrXAt8B2ustGrYtiftsClYYz4NmKauYqQm1+003DQWQNhOALLN0MF9W7vrXg2BYeIsGoL8OukzUZpzSKgNV6QCIGro5EnpDVdlaGhp9ASgyhspCoKrZGgDSl54c6AdeCDdfu1s8H4gnImICIJZoSSyMm+7WABw0rU1V6XLwGLqRf4s/yditADQGCL11BTB+awNo841bsU9C6T1Um9kAOkBDp3XPEgGm7tYAkB23SRMjSYkUzqacxEoTK+w0yAbwG+bxGcD+72oAOKLlUBtoDxrGEIDh00rU/KE63waQryApubQB9ElxT/sbYPPtI98+9UlZNbKrQeeT8zBp4ewWvX7DckoftndI0uQHiGapqPqzjyi/YZogI/UnboNk60AWSgCqbb5OW6PeJelHQQZSIwDLBk2eg7gzs20NuhT3JWtHlPSlYs6bveFp0O025drNKO5DUTjMHUNsaLEra080zVJX8zg+kgj+AKi+1G+DPIZdOYHQl8hSjP/WQa/7oX0HENOy8sVe7FIMNZQUrADILIVmTORmcb9MYSEwTPdmFS4ASzxXHU38UGvFtbpNGgaU170URhO55QMgJHOYZYUB07xROIal7sxtWtI6LKWLwngl93wAupnHle6HpepPK0hTbAPGAHSA9mYWmqKiPV3Nw7GdarCXYvcfsg4dt3cAlNfoSOZU0wQa+zWrGeDbcUeO/WTrwMp6nGBZh36gxR4A0ch6umuy7wBCSPXMWyPf+lAATms2YrCgKh1SSPSl3tDpUs0lsh2E9EkWIdInSu8AdGNDyY7bktQceKQvBUCckKMgyRyiN8kn1bsP8B1AbqDRUbvfAPOWkacpALL5xuTNV81FuPBSDICErswDucoAdPcDUaxOvS/TA1DuHO9bwKsQmBUvlACoD6XdBc87gHAzk8mcarzGnPdotHcA8U8HYJKYaTati3drU4MjABRTUC3I5xqgY1joaaoPlfADAHer8RoBwIWzQJwAkN765G8/AMh4DYDI1g0guTRPxoArPc1Vy0RIAKqtA9mi1ZiTuVD3DoVN7ofJxuvW8GwvXQC6jQHVn6XM+gbAOoRKWHwMDOi2DqQ6bKWzfgqQVNxfA7ot3AVgfW4MWa+syaxDAPR+4O0dADH81oH3Q+jB8kkBoK3RLPxiJQxdaKZrrISXYgCmAYguCtVcZOtiEz8A4rBYj5jcdwBhTgJAqsO2FpYBaKWbyqUAkOEXACGkAkD2Q7N4jVXvgucdQLb3qqi3hj0i1u6q6F4LgLj9V+WF6xohFQAiN8Pi0U9qdx/gO4Co0gGgW3S7rw8FkNOlGXcfAKLt2lRSLQAYrzzVBtoA2ksWuhAAnNZlu7VxyPW6s3ofAbTSS6mW1dGdEIZkMgAdoADoLHXcfN3I/gAQBbxjJ5ICaFoDIJHLa6AaGgBhHdZANrTblRUAHHS2ab0E6AG6BKhcugSIJrCYVOtG9q+B1GMAqg+aAXplDXQR9qrsz3qwl+8A2QG0+SxLY3E0xY4l8kHTG5rGhV/NUtNoijWQpuhmlgWAdI0A6Bg4tLp3DY7YYoYWzsyyxXECAdAxNDT8etd0k7jjKH1nh5lVBRB92h9786MmQNM61EUYugapoX3atBZ0aG++yt5Azq9uvPdWf2gM06RGwSCVvtStc6Hz9WUnrtxX5h1AYuFWxvthmEM7ABSZE4AiClbCMJgdFCkLx/bDsED9zTrQJyXdGpPjKkfS0IU5UFkPgBpNHfNVht2isyFNEQAJIZnM6A7jvWfFIMYACJM4y31l3gHUeGUae5jLfAcm0+YrGuAxD4xqGUZjD45EGGZajom3aACEXxoccjuKnrgdmEyzVCwPhQMAhwWexUST7r0BEo2drgatAObuN0DChidyMzFEIdXiAiAvzQaIl6aj02UY2d8rUsAb8DqtWwukE2cpGaG+U8jtsHi+xtz9MBIhzKiLMXTz+KGYqWpwNDaahlHxrSJzMuqJIxVTGZuqoS2jeTyamgMtYV7WaOYMPljcN3VN7ThjOnGWn1vZDzS6ppvXzgmo3aKAK5r4o1skAqeQB0DkUmW6aAtGCerl5JsxVNGtnLgSAI33PljMGNm//fr0SdPi+SafaYumKJP30tQLZce50IUy9UIpHe24YWR/aRhNEQDZfAGgsOHtcrTAZLKnAyD6UimskS2bpcyiclk4UkKDIzQLuYEKh6A/cwbvgMyhC9OSPjJL763syBsGWorTNOOLsgfTUlh3fDYD8lAA0UUBkCsrV3R+TdOMd1A6A3TQF4BsC1fR4zezOo72oGkvFdU1dpw8A7S+BXPG05TEXcKC3uAVNy7eULX6ygbQ1qhWf+XyDSdjoDcY+5NZLgVATPy9vWmWmsbzbQBt76ZiJnMM1jT251kb5B1AI5nZUgxAcwDVHujKhl4DvLoKWVk72OKzAI2KvwQ0E2QXgGGbD6d1Kn16Dci2Ncgpv0kJO0AXAD9xZPhNi6vMDU2auWzzcSbktMIRz2SZdwCNWe/on16HHaCOXOVmk2SlB5oDAdBUgIHk5jpsDAPX4em+/qAJkD0dAD0PHG0XABVkE0OqAqBnmjmyTQMuewPoS8sKQeSHrvwOMHwM9EnlZFrJ4AiApihNvFA2Q+xvoIUrliUy0VW7zOmSJ0ZILYvn28VqaJbqybQioFnyzSVAr92JtN1qmma1C+LQbvVLcfG0nmXgkTthDcuwODDLfJmHY6cdktQYug6Fyc1lkf0loQG+zMMRAPIer6lV68LKIlU6AJprWVDBWkulxs50oVla6p8uFYmQ5YZfRSp+A5YCiHoMgCb6ViTKN2AqgBIb03FYPTdm+88R5M06+SjWBU6G3flE+MR2FmVLD+lmNhigR6hjsthaquruT+JZEmt0D5pk37K8qYb5nGtZqbx2NQbJ3C1s+i3TyQqb4GuZGGAucS2NVSvsslieV3t9SC2TneK8llUkK1xhYwPsDURkLwtYjXUgwuj8jJL/6/QVeGtZllJsV7LB11K1bx8I/iQJd/g3jpxJgatD/VmAZnVz4YVl1fP2tPJF6rISNaCp0c+FgwbXVG5w34sMEDNoX9UkBSzz8JlU/VahkROUkFxfw6aV0y1Xt5VOvFu7xlfvsqisWLqOhSeuGX1/oLPJleMN+JT6fQ1QrvxgI8VMiA0gaWxGSjlYizMzqHA9PDe09jqwdani+8BQ4wB0WzgKzgmArzSqffmktAOKSqtysNeBbpR0YkKQ1rdpAVtpuoICIGO4KLHxjMz/ALigZ9QcXVfkiVdfyfwGJeIWWgTPBKAP1iXdotOSgzNHL+wkJnsDmXLPvKqPVj55dqYG0WZ2K55wg5yOf8I+Mol1wm9eAnThBjtqnKO9BCgLPDCzZPPM7ZMAZbIvAM6VDzR4Nxt/GIDZeD1xA4MRAuCEKO7WblKDo25nO1m4K7+LvYEk32ya/LVJXTqizbjBwVKjqsWROxpy2/9VFIDnwT1snV1B7sPrSDyceAk7kgInfsjLN+h54PrBJ77UjmbWs9jpx4WjWXImmyP0dhCibz76JOsFsQ8Qu6jV7zJRm5ln1y4FVHiowIWSOA/N5SoJufJ5mO6duaS5l8LiihnDbdGKbxhn9A9FYAwLly6DI5LM/1W4DvrwkmR8sQ/LgypMfQ/naLlm05gakF253tGY1iwhoRN8DGUGrwO9hIarhRduaEZ0LRyLafT9DofjCD0x8WvjWbJ6Rzt9nla6K5VYB1q7w/I+6uR16Equ14t40m4FYQ7UNYaFO7TMY/DQSnYQBEB2666MS1KjaZRh6xiRFABhTp4Zm+eAB1v6AHBBeg+i7WziD1MddnsJmqWqLurOJTaGVX/vnDI6jHXoHXW+Ua3FxMR4oVF1pfvCit0b8Lpw4yKu14upZM6ZqKpVjnq1NSQcbkcrX0ShSwUZDukbxs3sgFFauGJVxxdHrBbLXeHydrsthhek5zdoKgpnpscyie49uVHGsH5Y2wTh7Bi52CfXcQ6AVv1gC2UkawExeZYsUvKiNsqwdiLrQnon5SpX4gyfw5LwMq/DoWEnT+bvHUDzMwvHJh/aSeBJqJ4CuvmmVsOQjQCIWbY4pK8vS0ptaE+HYJz2ScQv9alU/OKy/d3z9zl9oA9VfzaAMnGHldjgyLAAiNG0Orcc61bPYuAB6l3rTgWAyp/2rlrl4mp13bIy1kRLsZuCtbgvUveKGSwEntf4BwCmvTbLrudImJMk7YVH9CQNnJsBniSaX75Bp3VhnPtJsvziA2Tp+B+8t+8QcsldIryowELT76RsAV/tJ4URLgG+OXCejGy5WrqkntHF9bl2gQr7JLKCAqCFQhbnRFvWxD6kdKoPa+7J3fi6lfYMAFGDAXBBQ7pxs3CHxZGMJ9VRJlep8forXCb2pMLLxDiVZlXMNoCr1GgG/+SKR9aGaLGN0oalyw/c3m1YhRf2DzS/FgfqZLsCqxWooMjeZt0K1sBg493sRtaBI6x31aalAKy047dcxwTkZl0j1iOP4h3AqwVR+M+unuVFNi7qcyUF0E3dzHy9qMrRLCd6VRYCxeRSQXEfALGCVkGiohndv6uY0Riyad8ZabVnGeYPAEoK8gJ321FPb/B6RJn3khXpuwYIVX4FsEKD14DuY/hUscQNoAKoFnp2DdCLPaOH2ktKrox7aRetTAYAueRlMTeAaoFa4c2dFnFR2jMbgD/JTXDyKtahkZIrcY1iK0l/UcqwDuWwNoA/SdeBA8NqNxqBe1XWbrcot9sNQPY3EKBptOcFFVKtDdEzxeYdQOIp1kUZ8WY1lbifWnXD7KKitldynlxRu+o6THalVusPMjkH1Otdz4qZsrui9usBuq5G7TVkrgDCuC4u5+51xyeLSuvT8vQ+vQNoKXTmf06KrVdkjXc5dxlD5qLGRU/c4Pz6aqpD504wNes93SeS8dX62nUOXtiF+18Hvavk08JljZzphSVfthoyrC95e4PO3WFr0q0R9i9Oa1LDb1epoUFbhcjOIbG7a4Q42BYG99dDy881TjCrVjKsTdYEDiucMzBgtVq0Q+uYE73bfVilHTJeiyW7NN58ZWn+5PaMUq+ZZf02KzqnAiBF73ddZPqkqbbotijoDVMjNraBAAsXANFmtvpOPX+sD/BTG38H0EFzDO2OABG3PBfuD4D2y+F4u92GSIIXONOqmApXuVZDedR4fQAKf5KR8buJCW0NrxbELu3dXkrCIw70NZVu0dKLN1+3HAtODy5WXPqiBWgxIuQiE6VYoGRpLDWa1cGpGDkTAG38VdBpvpOYJIWI7Tjv2FYShkd4T7jCFop3nSuJ2wVaX7sNoJU2jWznunCrPQ+fwwZs5h4o3M3G+wuWxM38rINhSei39B6JhVUH78J49QbPgEjcLtD6RxVuQu29KjeAtoZ1w7z6JCvBfTVo6+hZEnf/80BJ7lZw0pU0IQV80vf0EqBhjIm7VhvVUjhm0LvD7lmitr5Ww36vA7fE1TzZhBeK99C9EDPepTcA5AfyPsAloTshexfGi87b3VL+M3et7icNnHFarQ1RKahg5WahycxK76JOFgdMZ3pX45JBNwy63fW+LOsVz0NV3XsrRHRErfFXuWgsX1Uj26ovTWuxaGluf5PNO1DZ8MsWGLZVOG7KLoOuXFw6GyewW9eDMM7mMq/cHyRbDZnQjLF7uBU1DgB2rc5qHldO+8jZQpMHqj/ZEg+f7ZvOAUnD57ZJQ3IpqfRu3GAnAEIMXphlAShm+BE3k60yYSu8Ww/rJMklM/Kh90PjXPl86C3aBure+VBBthuxMEAE2WZOqFCIZeN3zqtNVtqhs+MoLbWydiwNbL5kuZC7pQKVRViqCexALthLARDqsQ88ogGQEPG+kKBNpv7sSGMetBzRwV7LNNVS3FG1IDU24HW3Du64kCzIcDS82AMwnJWGazcASjIz7x0AYeE2sw5iJk2Lx+Z05TS1KvhkQZYswGNy6kqyqgiTe2Al72BYMRs/AOqwqJjgk7p1w+Rcl9Q1QO8akLMCiMxJTa2s/QY6ohYRsgEkl9qJ4+jiDdry8ALgbUwv1qGqJrAzPEkYW0n6yZpxKtYEoiCNHQD1+BUMLEhWqGEnbPIbJPg5ADhobwJxcQOZW2eyxR4ADaTnhLdkpQwHN+hMSSngsZBUSxb1uNP4aNCWDHAlWy0ZYHBYWLJkgMGtxdKh52FwbdxkpSAG+x+SVercmSP8SX7tYgEZdTQNLjBvMS3P3jNvnpfLYRyoBlgITF9cnkZjnfpEq9LqFvWLTH/rM8793i0v4ULXs+L4vWLA5tRN3QtaPlYUqbPFaq6cUJ8pdsyaUm2/I+Uaqvh9xla+eV58szsskbJhlC5t3GBqWHLlRWavGfSL++/o/qyTWxMo+VS5TsRQ+6hepOaof7Jyzxfr9VkLZ8GYZy+hbtetmCXXunEH1EVg7UllSpIn7n7KSGA2q4aYUHFsJwWNKCzLlLq8Lp7X6hOcbV9V27+oVlGtrk/lvtpKCGfOlyvW64Az+IraEmmimyorR5i4/U9WeZJYR84aCZi4NY8VuNo3OOxP62bKlW0OdSFzl1vLyuBoh0NDyjOedesnklDNtapWBxJqVkrywI158jhxASePUy21k28n1spm5sA4eFPyDuRirD78gYrzobz7gSHCh5o7nONlHYIPDP86VN4zb3uo3XJgRs7l4/GH33/48+e//vLTL7/++sef37/98+vH///p2/ev//j+7V+//fj4pz9+/uH3r/G3/wc=);lineShape=1;fontFamily=Helvetica;fontSize=11;labelBackgroundColor=default;fillColor=#f5f5f5;fontColor=#333333;strokeColor=#b3b3b3;" parent="1" vertex="1">
          <mxGeometry x="68.66" y="481" width="905.23" height="153.13" as="geometry" />
        </mxCell>
        <mxCell id="DTVYAWzvXYTGudNab_NH-60" value="" style="shape=stencil(lVrbUh03EPwaXlW6S/PsOP/hKuNAhYALk9vfpxVKy1FrT5/yGyzTSDuaS/do79KnHw9fvt/fRf/j7fXl9/u/H7++PdylX+5ifHx+uH99fMNPd+nzXfr07eX1/rfXlz+fv77//v3LsBw//fHy1/gP/7zjvEs2QNH/+/7Aokv9/ye/vts/PT5f2AdXw2LfzQV/3T66Vlb76kK6bp+d76t9cilfty+u+NXezyen9s35df+tzxVP7bvLcbXH/sN1e3Nlfd+WXTThT78B4LImAMHltALwRHgoRGerS2t3VbgoYMcEqK6pmIBLKgOicFJoLpUNUASgu9IYkEQYBXPVNoDwEhKhbQAvzgGZ0MhLZb7VOWBLhZrnUZ4Dkqvk1uSyyrU8z/UARFdE8I3soXcI02/ngLqtAL+Jk0a+tfUdik03nAO6a3kF4EkUAJx0YkAQK6Tg/JrSBaFRBSDOCncAcDIiH1KakXMAggsKkGf0T0BGVRXBl4rL6wq5OFPvUF1fzyEnWSdTc33Nhxznk3NA31aIM37PAeZ62gDipDPqHK0QXBduxf9LG0BlHHxi9NJ+Bss5oMxmNgHDDWqFyv0Hjs4iWvPWsHD2qqHkPkPtAKAIiMqHUKMW+pFS5y03zA0cgCqLQIncUFB4gggN5Fdawxu10ES0ljyL+wGIs2OcA5AuaxFAA+jqHZoLKwAtRjVFVKEYGKCYDwojA5ozsSWUXgo+NOImQgPFnc4hFNeFW9E+8upWcAOV02hQfY2lkGRooGf6ygCVcYMo0JaCMxHetXHLAuUyERrVuD+gUIkdNe/ymg5d5hvoGtW9JnlDS1wBqmwmIJyeGqKL4n1hb6tH83TxuX2ZRfcoMDKZQZiN6oskVoOQU0jMFzq3N859L6khBEJLZK8YfY8sSfzc4Lk9ildge5FkPbPE8JI898JdzcuWA8Fl1EHmguf2nYtvl4IEArBQ3SqylNpRaY+ACJPOnAPCFkFZpoAl1hfIsSAqo6GsEcBm1p0DCidx0lFnlSsjeGgTYWSdi3XSTdNwDmscpeNfXAMQ1QYlk9rW+BxAj5IIpQEgPhVkLJ0AcJQieQZgjaWcb61AguSDkl11a2GA4iIAJPJSk9ITAJ8ZoCgeQoNiCVtSoso690AQV0VeAGCqjSp1A0ArHGOHq4A1Wgc31+9A4T24uXIryhZlXNcHhz9vZP5GxjHVblKQAEB8aqygY6k2BiiKB0Bfo3XILL0la3wOii4Ef7Szi6O+sSejDMq3krrTURepSIabCFBnQb+ao1RnmhxAmTHXHkmty3dvvKUbCfGTgI3YolZmdQ7VZaqVYD4qg4oraxVA9CmFjjZKfTfdcGvcUq5I8gwqQMV1DFvES/etQcSjx1yjP0w2qpzF9MZUAEIvakJGBBqqSlUBML62hgYkjCrfoJREEbvsD4OyRrLPmhLTROzoF1cpN0skNUADpSdJZfKQ28aVbA6jzu0bD6yHJlS3BnUmyoXqlCsUbg1Bj/XHNcF6BBDCakoPWRgp7G7oNuiYNTnB0xV7g7BttKUqtwTlTGPM0CWRgTbv24xEnQPUf9mkg1ICtfC4IOqReM2sPiGXippgRI5tiBMT6T9G7FuBUTWvbldEUDNqbFO2kTjyQY3ES+dx8lAzanzWJke4AFQFqC5u8kfppZKZp6eo522Jr1dSlnOVsh0ceo+qSmUb3IzZrToHf0LG5Ox2G8WCjJlI0dynEy95+o1xMrGMJs9h3CuQONGxlDO39KJZxmAt222J9BIymFaIskOD5hCfRLDIKyJjLgZAUYDOFHeEo3jpwYvomivLQWmq3OKQUmqkgWAmpoQsl/cxeTrxmDP6edl/DkhcBFALg4jWcZFGk8ysL9I8j2XQANTs9mNqcwC6HB6CiJCYGeNf4aW4XaQ1Hd6xcPC1oAGJMw6dW9VWdDQamoAbKJqOnmn0DnmK63OA53wAv5H39dv1OwCq7e4X/E1LvtCY4gKgMi4c6XIBUMo4bNQBACXIQNjYrXUKqHNA5I9pWtffTQQeXTeT5CRsHWh8HiNOeit8PcjY67NoHfZ6Xrd9+AFtE8V+CjcTqC31NUDm1jCGzeqam68yLck5V+QaCVGtOLTnkBijChGlnid7Y3gi7SvpEq9vG/x8vYsF1O2BZ4LxMcO6Yk88b8w1RKXwrCRNT8Q8X25Zk2J7G1ZZlUNxzw3EtEjyLBcsS07oWUgi4NRFtWdJZVFWrZ/9nu+2PX74+Hjw2+PT0/u3h5d/548N8ej9Q8X0+T8=);lineShape=1;strokeColor=default;fontFamily=Helvetica;fontSize=11;fontColor=default;labelBackgroundColor=default;" parent="1" vertex="1">
          <mxGeometry x="786.3483176643604" y="296.98707708405664" width="195.43431875155215" height="33.03776030073628" as="geometry" />
        </mxCell>
        <mxCell id="DTVYAWzvXYTGudNab_NH-49" value="" style="shape=stencil(nZ3Z0hw3doSfhrcdhR24HtvvoQhRQ8XIooLieHl7H5hR/Xdndn9l+Y4LsgtAAWfJs9Sn8rc/v/z0x+dP+fjz+7ev//j8n7/+/P3Lp/Ivn3L+9fcvn7/9+j3+9Kn866fyt1++fvv8929f//n7zz/+/sdPe+T+079//Y/9C//1A3fcUtmgfPz3j39o83bk//2Xf/sx/rdff38a35qNL+/Hp9uxbPyg8cPmk4734/OtJhsP8y+3w8dXGl9t/qnR+DVsfH8/vt6q7SePX4eNh/1st5L/ynrbrfv7hf1st1Wfx49zhi/H91vOOn7ieD1v4zZg//ttJRsP6x23XHR8XzS+HTYe9uc+24fxDeZ/P70P4zOch3mrct76bcB85m3K78cbnO/HL5MPcaJwvO5Pw/O2bsvmc8D+p+OWpwHgAQHo3QCwQym9WPIBryAAZdma4UwHoA8DwKFI2aRWO+XeO0BpCpi06GxTiptK76Gcm/gAWLRL5fy9h5NdSROUW3PRQqqmnJLkQXbRXUv1VF13wLodDKgGWAwQddaP24Trk9qpHe+AeJV0lpreh15QIQSgJQWQxA6AriG2gdbQ9bT2kBl0RfutCKCj0AhArwrA99BPIXcHsJpKd6l7B8RZogs0zv++AxbLpaGaMwCLAPOWn4/3CGOMbpzphpFumZ8wugImiZmlQmBktF4CkIcCKt1p0yfjLqneAXQNGd90WLQiBEZByRcAEWQBGLCGbTMLoN4KrCEAYsSMEAtw48JqFiEQALJ6smmg0XlK+VSBDwCy29wwH+MUPO8AQ970PG3vd4AlU1qoFMM2lzs9j9PafQdoz9s606mT3gHW81mambe16n2Y5bQ+3gHEHg4A3YcAjOfDNys/wTTQrHy8Q7jLtrbTIHoH6FMBZDqEUX/Iovv5E+8ARZ4w2Ivsp9H/ACBxH3a9SL4ALFr0UItszluhbR2nHf8AwNM61dUOACnF7TvIE9apiN8BxBIIADkbAVjPU1oHeufhDuSqAHI3AtCLAkihbIdjGgCeUELcJwWQ5AuAqN2VTqf3HUBUVgAmcQxJVdZiMROAKosueB8CMIcCOhyNEnpf3nSINlpD1sMXgA5CoJiHEoDBUxItup9Ab7qogbXuwvMdoNmiJwNEZV094b6J/9ddqnb4QtzTLtXzqD2cpQkXqDSbUkJbIwA6pQN90QCIJRCCjEyHYg7HVih0H/opeh90HLn4xWioULt4p/ttiAbKJxP3GjBsDRdSY6ioDGsG1zCUagwDa/ETRCkG4KD3ME5982DzkTtQ5unbPliVmQ7fVHoyDF1yaYppoLC9iX8uS4/GKLzo0EDmoSADvfTGhZdFLn491CILx484xwCIbA3XkrRoAMRI3O4xsdChgQ4FZNilAFTjBEjHBWCKe1xQttZ8yrkH5qTTtt515h2Qbol2yTmyhaIyAB4MGDQl81Au2OgACOtwQf8GYAipFtIW7kMAxF5q9RRtrwHVIjIF70MAhMxpYRvQ4asWc0jocFQLgtSF+iEAotgDgEejqb1U5+mSvwZ0Ndbr3UF4BxCSuTKjGwDhvfdG0xOGuvjx7gu9h6GsQ2VuJgBygeKWE0EbmyiOX0gqfA9T/emQtqRFA9CexX3h+F61AMrW3KCB9sl5XkPpSDIHQOylwvRpAIYAKpLM7VDpHYAGgiwAOSuArMoAiK0Rpi+5ZQEQb7dkJHPiysvRCJ8lg2zdMuIZsF1BfkJ/FmTb/6VQa9ZtzR1ja1vOCaChuA+AWJW5oiWwRe+z1NgBcLjTAZAXl5nRDYAY6zmh1AiASO/M7kDomzQUQMxJAERUpoW2RgCERNg8Na0h7tezqEwcHfgICN4B43T63wFEZQWA8iyaRWkSk2phKBwGwG3tapykjA54AETcp8RrGLZLB1r3zYIuzEc1i7ksjKCEuVZ0PLkn27wTJw4p7DbVYeLkj7A3hWrlZIgYL0wrs5o7mimhPk7OML3AZ66bWmjIp8d4mT9H4mO8zD/0GkjsbfCLQYLOYYxXtYYGT4xXzYwsWrcoy51heje+6HxwP7PateUMr70bP3U8hex36DnJeErmiPFVRApSSTtS/XzeDrzvvar6O5CE2YHtKuMpVhLju/4+xelivNz3A2nY8JFt/mR2dfNbLn/f5oPnv6s8vBzv+0Pvd6hOOjBVJ8aLC3+3bN+Nn0nHUzKZ+R8Hshwxvujvk4m5cwrEtEHnI8ZPvV+YDGfx+XZanO/GSzbc4Pe7NB9mosEb48XVDwWPCmOpXx02x4QZjUP96nQ37t4BxIn9SF95B2hmylHwJQBitId1SbdyJJWi20KmNSRNUo1zhEmJSSnIHbmmRefT7X5wPHBKWZ3Y3FCVBUCIqcw5QJuWNQARUwEQsjkP5GgCINzANp9oDUVp1DyR2R2WgJY5ArsTR54vdOEcoACIDV44n2xnmohJUVFGBkB0eGloFAVAhRhHCUY3BmUisxsANdPWySa/A4jzVNlTGcOIqYz0XQCKkWuNDp8FXz5oz9cA58o4SWKn1zy/h82ekdQw6mszT7TopeZLY30YAMlNbHeL+x1AZGsAKNtrx8jkCRyXC4AwipuEgaMx7xfygf++eMIsCiClOJN6Ca3iLgVArmhjv2ta+D98eTqtM5927x0wMPy/o6FWh0GuQgC0EGCh1AiA+F7hHZJxNYsK487pkrOoMA5/KYPk26lahwLwTRdNYegFA0jTHJ7O2V6zamZIvzhLVaX3dmrgTs+mFQ2dQ7Y7e2wogLzmAEiNRfgd+B4s+BIAIswDUC0+SlzZvP/eA4D4vp2fJtvKdToBEFdsOxO0hqFyaXsTdOOGptP3ixs37QItNLDmtNz1hZGOnQdiOdMU+QuAr4HCCnNZ/v06OYF3gGJrIIdjp8wlBZDKWhatCY8CS2oOzQwJAG1rADTR40DFHgAJbG+fhZ6QdJdGRiYvAMLk7axsmlJW02FwatUqllXR0TJeVo+ybTRag0nvbUERoFqG/8J40DLpHcYEOfg73awpgHKAlmcDJ6QElmV7zYScTAA0Uyoh6bO61mfNhKxYAHxKpBQDMP4awHirmdCaCUBef+k9DD188+CjMTRvIwAkvZe5A2NhuVUAJENncJhtefHHwvDCMut+2/skZjy1avGNW3pFJzN8G2A1BBQU3gB50+zSpMPkfZiyV3OyXENK/F7Lwk4FHeq9r1ZEgOd7qU8zueRlWdnOrKio17KM/Xq1SxLkjUUTXxQArf4omHyyllpYkxOZXgASmvcvpnRw9a4vmvPpfVsHVzj6ixtMCvjR2ICLs2SyElWQH28myV5coIRn6dUdTejJvRADHDx/IWgKq3YXZeXqzYmw3Hf0L4njWTGp5/8D0HKoiskkroM2gJWW1rxcLHpaoU9lY3q8KLii5KpljtkuuKIpDeVOZmUt5+ZJxfzHFwZQZfPETaxLgBpxlU9rsylxGf8LQ7Qhp7uM+Z4c4/goJ3lUQQyodkUpH+OjduNBapBzGS6HULQhl1CzlxceBN44a6CyWV46S9nKDgbyDrv4Say+zqZuUh5uND58r+prUS4dL8oOKNC/rGhsVG77scyjZrk0XVFXjCpuokKeUFAIOBUyOAPfyZbBUcVpybej4Iublt57DdDTerEG69eyg3q0S9YQZocNadHWWWBww4bNJYqfldGG22ylALiecPOhWQHYdKZZ+ThXXW5O10gvMslmM4p2YRXB1plOb14w30agUnLT5tYNcBFQEEt3k8B0Ra2ao3PS57SKxZ2hQ7uUjZduVwANWbCO24EdeXGF6f6sOXg7isLBKX3TzFbOpLHXttAi+3Cq7oDJUzpedHlCEvhQtbu75zBAFMpOx6Xo7rIimYZxy7E0A38nLTNAkzkrZhNuQ8EqgzBjw+rNW8ZI0LB6wsaO3BiWMLrQLdtNLKzQB3dpaLls5Zza0W1KDU/rto4kjl9RoQzL4qvcImVYqviu26GMjaYxjsp1/8N6SBSulBtWA1YGdm0Z1Qp9uPBtm1PPV3QXY3O6kCbLFuQphtneu06fdqloel5h+mdYi5QAYK5aVpdmN1hggAR2Pno+vANIjn/mQGeYIiJb80AablfTWuoZcTPj0F3aXRnpPRxKw+XMd9paBuWEpsM41BdNC2NN3cicxH0hd5Ty+YqmjlZlN/8hVYyMboNNkj2ZDg1zSt5D4rzHbv2qFsb9Pd12YOVRt45bDYWSpxezl+jpy6xxPT26cTq4pV9fzMcUw0W5haWPX45vNh86QZb+fjG+6gG6WG9VNdX4zli3pob0TYwXv6pflUNIevTg91v0/EwsgYzxIlUWp3d7yxVMEIzx4lIxNdTvpYUP4+n8W1LA4v1J1hwIVU23LAUu9+pJJdzCjMtdnmT1bbhg453SgTRSP6xskIPp/dBcwgBgCd2yOsOMfEdbVo2Zuch1KWeTLmpWp6mygur4o2XyoyojwFBFs6sKaNEm2RMz7tv9E0Dj0sSuNkjqXGvYlXzeDSW5fFMS9/KBlRHNErvzgQ7hbmIrpt1F7XDTesOcUcKHRypht8zdjZo1bN0le/wELXSoyKg0a+mUuaFGMxrpo0n3O4Co2dzRUtsJylJKMa5quLVChQmSZrzTVj30Hiyd66NT9DuAyOJyoFPbjEYqbJ4GQJje3f+LAWK+hMtJqVDt0LLywjZ5s1zz3bOJnyCOyG7BRHLJ9EOZmMhal/XH4J7K1ZIgAkAN+aoFiTe5QO1fpsrWmtBPqFN7GtSM1HAARJDVgvxfnUrn1cp9e4aG0it3ygqAVndwRn78nojKmCR2mepKDe93zz1vRPLtK0VNo7pmWWyxQFOyznGNC66rBYkb5w8EQDs0Nf5eQ7UG95070hhRdVFKsdk+ecK86gElRFW712W+A4gZug1T2tZiSdEJK+dqUVaoM9Nbs8VWCnfKypb+XpGoCoCIyt6vpqTe3kB2rlp3gIt8+c26Pj/hg1h6B5Asi49S0deAQ6swB9tL9VDT4bq/nvYI5A8+FMuX3wWE1CNwWfiTC+GKxSXGwLbnxfuks6NYPOuILePivXwT8rDFWmtdNai0bpA7IMrtI8X2nhxQKt0y2JjOKP1Fx2PiMwKg5ecL69oCII7fzh3h3qXaMKagA16aUm6L/bhi1U6rYzJXqdbAeCIrVqpuawCwYWtV23stlBo7MNIVgFe0qmJfnKftnXYfUjDfIZRb4s8rlKzZK2vx+TYXZS00vl/0SGb+qiQ1XHf6IkmydFpsd8DAIFcxF2Vxy7LtVDUFUNlZsdqiAGCb2kMN18Xxz3JoefhqV03GJUNzcZugbG0uFueAZit8XpWnNF/ImYvO6rqtBdmc3YlAxEbGrIk8Nf1rcYl7tor1lZFu3SSDnFYu3s5Gki02K7N9J2ZxIc/+cICcpQPjbtlclJ36R7vULCOfSeMAiB06mSXPxnmFGiX6JxvnNQcyUtnLzgYq6lzV3Z0d1WguyoRM7nbq3+mbHCsKgPBFu6SFFp0t1Zxb0WRrtrXL6uksWTev3RqAv4Cied0HGn37sy9WskVKcX9Yxoo1yJzZnWrsCaTjNkX8LAQGN3vfLZhkStyrOnlq7UArMVkm1G5jzt8ckv4Ko2Pia1pqS28XBV5cMgprdGwUk0w/7JxoBmiFbkNmcOcXeMEtPWFYcR5nLAdAHbnCX+4bmrIzmNJNXZmQqw9edWURRuIvxtn3LsfBX+5rGiPs3NMyAGLzdW7ClZqRMxMVezIKq3NCfgCUa+FAfKrWzICL+ZI1kd2tB2kNRe/07oVIUyrKDHau8EpF3/TuFkmfNstqSnfujpOyvemLs2RNVjr3u0vWwXh3uKcn+JcsuZjvxbcyuTXTi69xMsv84nufHDl68UXRi4YMxuheFBlbU6OFhoN3TeIFTMvp5nYP0z4Ayeduqn/VudO2lVBcfFfBKij2ePx9MQA6N+uyTwLv9VIajnYa6pxlaSL+ow3ty/HGKXVOc7NPMu98dwryWVuig8l30zhcLmufrL4Yb5/E3uOJlLBmOwdTDPa5UV6vfZlwRzPIDnnxDVcK7tknzzv7kPZJ9Yv3a59s3+Ph/h4WWzmQS7bPzXROOjq0EWPnJOPD4iScBeUt21hlWG32LvcA+flqPMk3nw83UrL1Nm5faPu525Dj+ZH3dfFJeDsPu/Ua/r5qYP4k/PX4+MMfP33/8uMvv/z6229/fv/29R+fH///l6/fPv/929d//v7z/Z/+/PLTH5/jb/8D);lineShape=1;strokeColor=default;fontFamily=Helvetica;fontSize=11;fontColor=default;labelBackgroundColor=default;" parent="1" vertex="1">
          <mxGeometry x="25" y="268.53" width="764.01" height="72.85" as="geometry" />
        </mxCell>
        <mxCell id="DTVYAWzvXYTGudNab_NH-26" value="" style="shape=stencil(7Z3J0iQ3coSfpq9liR04j6T3oBmbQ9pQbFqzR8vbKyBaLb971pfTuugyNy7wvxJbrB6BT+Uvf/z8w++fP+Xjj29fv/zt83/+8uO3nz+Vf/mU8y+//fz56y/f4p8+lX/9VP7y05evn//69cvff/vxz3///Yc9cv/Tv3/5j/0X/utP3HErfYPy8d9//oc8biP973/5tz/H//rLbx/G58PGLxqfho6f+PdTsb8/aPyxdHzn8TbfduB4+548cXzS8UfG8bKe/Tbq942v7Xu+p9935B+cb7st3C9dz3breB50v9qt4froeWi3yuOHji+4X63ZeJhvuu/m63jYr3Trh42H85Zvaer4DN+Tb93WP+H4JX+/3lZ/P77cZ/cynu5jufWi4xusT7lN+54Cf7/eV+NlfIbzEL++dHzC8UvWs9xX7HR87M7Q8RP2N067je/wPe02bXyB+95vuel4uu/91qeOP2D8uJ+ux/h838E345uN7zh+2niSb/O++y/j6fun3Zd0W4XGr2Lj4X4tO5/pNkEerltdNh7WZ93G/J7xKQRuMwAsUACy/wJJuOMu8F8Agz4pmYxLKFMCcLJIcMnS44tfd43m4GI3o9gNQLNzN+AcBWCaYKGLnOLemuQ66JOKfVJFUygAukohzWgO1T6p8VmKDzDrAzeunZhnA8Rjajbpef/Nd4AlgIUCJnW1eMuBFl0AmgHwAsWafLyiJWQYXaChV7QUNNoDMOWTYt1A66epaq2MW6VfiFWXOYTkpGWdug/1YeqdA9YtfTytNWwxWtZ1v18vgEmftNRWqBlt8QDMj8qhFlRubi3Xit5HAKr8QsPjHYAhk+5sDyZVoAEggzCbMK4DL9AW7k0BJIy36P14Wuu8DfqkfD/MD8DiVSrqRbXjbhe8A9SP96ElFPfbavx4WltGv2ibsR+XtYV+ADGzLduuABICARAx0+I3adJNlWIAFoj7bdzKpBsq9qdv+QCE90v3oetpbXH46Cw9vOMHYN73/h1ADNDGgmz79zLpxXd6aMilH/fT9Q4wPn5ST3cv4hww1ebrGZ2MAIiX18OYoOM97ZPiOJLkeyziA9DuxsQ5YNkqsa0RAPE8e0fPPABy+AJAerpYbKEP9D0DIM5/AEihlKRyqc9bJe88qVzq6+5wvQOMjxdoxKzgeAdAHOIAUACvmPQejxjIO4C4iCPfNcY7wJBPqrxKFvQYDc3QMKfyx/swxj0u9g4gwnhMvKIBEL9yLPQri+mHyVZlscjHTGjdB2AagGy+sCFTVwBJ7wDUjzs9MwYnAjAOBZAgK10v0Cz34/gOUD5eoFnvduY7wPi4cbOxEOgq+SYLsrC0Re3Ojsb60zR/AMY9CvQOoMs6edJDrZkZ4hmkdxj/6eOk14FpgmIaaHHcJAASuF3lrvXeAcZSAJ6lZXMo6E8HQPZhA2jjlgajNgDmUC2aH4AFxzsA+kn1rlffAXpVAIn7AEiAcnGAe3ttSwH4C0mtytU5RGzRn9XRIqsW/QkAHY0AiNrdAFrWrGr3ClBu6fiuTyoaddiThgsUAHEHNoAOn2mga0ArBqBJP1ILrwDa6aYW2QaAIHt6z//oHJqaDhtA+9BPVqmCZVwf+/oKoFXqmjLZ94HmMDQmvW8c/cIwIdDQF90O/VQAReHDoS8ml8gyDoDkKQJA1kxdagmEqMSddunNmYoADFdZ8EnNcrehFCkg1Ux6h9ql+9AOdV5DsVOYoln0J0yHzgBRWWGcHHCWWlJDdz5SZucA8x/CIutwNAJQuwISpeCySr4wEklqtKJJrwBQEjEAkuXbhi4DppnS5IC3qnnxmTCu0aqu0nY4aOOqhu3GRJXVmn7S6GjCBaAIoPF9sGB/OH5kVbamy3rhWjYL9oe3S0IgAFU89nX/L+8AGhOYGAjZEbGPCqUPzAO1oaZDZ9nahuaMe0EjsZnD0TmBFwCZdFv38P87gKQ522SpYR5KrBt5WTsMKPHWxhs3NSYQl3bRxs078eQlBEwxsgDI8Q7hiVJjaiAk1CRF1ncoUwAD/YfYJtHTlV3LZkqxshDolm7eBhERHA5LHHVkBO1gqQESHO/+yL69ACgfFwAR9xtApIusocennXkOKJalabhx3RIWAZi0SuXkkyhhEUKlWGqKHI4thboBQJB1SwbXhnq6N71xlb2sAIhbtjNN9AsWX2oHWpUBSJYHojBFAES2hpghd6Abg2drblrWfhdbL6KSEqk7yi2ZpsHHe9w9nhcAmaHPsPiLuK90lqYGQkLwkBbt5nAEgHgz3YhCIXjweJvDEYIHpYZnOBKGKQIw7BdI7QZAdjoAlMsKY6faJ5GOC4B47Ft4whzGQ6O9AuiTksY1AkDWfQCWA+AChUkoHvsG0KSNc9mZLDSKpgg3AITxMNZlf4So3gGEftE5fBoAzcclDFOEpS0XaCtiWtZqp/VAZm0Y/0I93sYEzcH8hwCQkTiapcwneuwBEOe1MRs9PB7xgUK2kqE7LP8QZig54KPrToe4xwvUNTbz9LDPAcOYCAcG+wOg9IuJtsYY6tJsCgl9kon7bcLRpM1Yr5Ul3zR7qfBOTz3eNWOaMwAilyq7+OGfS1S6LKRfBECkd2GnaZhCKQOl97T8Q2GLLAAiyHYekwGSxX8mb98BxKUpCQ/fzoIKU+1AuupMRtleeDSmhbzyxHjrzHpaNw2aAcpq72jzBUDc411GAXd6p02FNsw8+1k0jP0kWb0DiAbKHD6d1YjJB+bjdtzw49HYDD+aQ1MTLk0mnzeN/qRx9QtCxEycTphdY/ep8SeZfkic8ZvGX9rMYwaIh5Iy+g9zqJeVEqqsaemExNzQOe+5gEdkHTVWjBfKycSw4JxK9OSY3VzqrnORXIzvOp58vnVoFdLAZEiMFytjoA29DrNw0YpZJoQ7+nsrmTGJkbFlrKWOjLmV1evuyBKM8epkoD2yjIHU76bo+XhLIDApN8arA83rWXR9Gp7/Vc19xhu8LPXLIYYYL+SMxx94N15so4K+9jLmUUYzZFni4KIop6luSvz3u+5XQldnDb2/HCpYD5LrffyBwe0YP7OMJ025pnrlB5qmMV6o9QeGYJcFUw4sol1mKx/o/q6laZuD5ZtVXR1I71tLwxwH2jYxfup+4f4aFfVgebJU3h58Hy0QlFB/pcNS1enyB8Q2Q2txjxfjjw/oUm5iwRzYHp9lPPm8e4ObjucN6EO/hwTKskIoJKCuZT4HVjHv8SqwsIrwZDwZif49BzooPt+DFfDSIDazkn2/ju88DwcrPDtvx9V5WPo9RNTw+5K4puzsQqKEthufkabhEiVf/n090FgWaxKRnQyXuAXjBv+H8UUv/IWGOWw8zdfYpgU3OMYLyTGzxT2tLwKywbdFoH//woKoJuBov4avDxVfbBadRJJYIHaLALKGbBpHqiywmp6Hhtz31Sykj+HzVZVSN9CjfdJ0n+NRoFTNWXNifxUNREwWcFZcPNljK+qBTQyyuUfFJX/usU02UMwjZGLc9jh1PN6vZPx1vi+HMSbZYDqM/8j36xGyf45HBWxtAi5CZU5dv4pwSEHxDulwiEYUzO4zQCHOqSZHSmiTTXNiAkBnehdJWOCLyibm0LBRACiCP61bRirIiAtAsmgf6Y3Z9VynzvvQ78zflxAnxhOtpjNNpHkEQK5yWkh1n0Y0vHBXZ1VlnC92umrZdeZK8Cfj9CX6TfJ3FpV3OwRDn1TuHvYD0NGHnuWsMxZ9UtajkSfadAEQGbMrJDltcViuhthkM2mxVcnoF+yKtY+rVMoVQM7STlBxCkwN2cb7cKhlVzrymQMg2aBdfkWJc7PddyUSXKCd9xPjiFmuY+my7goY/gVZ1p1OpV/wdhCVc8hTu85sRhzxEaZWgteBN25YUqFOTpx7lnrh0RjOcj2QczdMP7QL5omVfmziOAG6Or6tIwd18xHkFwZvXD9hbVBsY3Q1bfuBts9oamv3hM7CsLrUAOB9aEaxZktgk2GmApAtUJXKeMHJDoCElHtBLvCmDAntqfKyOimpokV2QnviJgEnxKqKeYAT6lblZXVyWGW6jdPPKl9RJ7gx+35T6GzSyDw5VJA9mbXvANnnwMxEJYdVZrmaN9ArJkA299E+CSml1oetc7eTAAgpqRe0NZ5lGK9XlEmrUofXE2qgADQDUJAqALpKByb/+4OX+yJbcaetuKTNK4Bkoi4asPQzRhyprG4dD3fXGQYIGeZCKQZAuC2hdkkpbiK6KPb5vVT3efco3gGUTD+5zaPT9Scfby8ImKjYT0oOJjPXs5lw3GqnZ70PuxrlojBj2S+Q1EiWh55okW1Oa1UAipnDCmQWBpI37dwAWJ1ldambjsklOGKcBOCiUEkEWcsYLG1T/YfGpkObdkW5GmXT/03M0J1u1rCuccCxWcq7Hxgu2hVmxpimo/GkCr9oINKiu0pOzNCGtIlmtIDdwYgL92SV+sSw4y70EKXIruWmO3sBJddDSiepwfzNZu0VB3e4bRbBGtz3LM6m5M7CBcHiw6Z3Ovwucjg2x1vmwDGy1jTUEh42FkVb77bJFJC4wRLXmKxFd0Gx1DhfVFFXLSOabPM96ytfADhpo0FN7kXyLK16AWBdqinFycyyZpV+k5uMtaxHYzfz4Wp2CWNPbjLWskq+HQmnSSdrDLXQEthNApoCsIl20njr7oxAk7YWwiuhRdZMsS+uqGmHqqzFGdkAiFW5uHN46H1xaTatjXpgGGljdUwiblPE2qOQgVW9R9JAYuy2UuUXJloC22CrCiAvqxp5OACUEgmAthbh+NLud1oUQC3BvWPLCz3jHULiFIsvxEnbmYXRnJPGNtxP7qR1DpfknzTnWdx7ytv/XAJOVonm4C2MLgHaJImrQE/aMC0U37vRk+0DJUZPWkktNFxrPtk4/IWk3Kc9B7pBFvO6BmQDYOscl8YLLd0ASOB7TdS71d4N2QwY6ie3TkQfGRsB0OM9+KWLZcd7YNqyeAsjfqumWE1aAC7a9Kn47rhxxbym0FkU2ChDbYfFzXkCoEQHbpxcrNh8czFAkJVhxSIH1kKVoeGfyVJj94jsCiCPoxgbanIX+9JVCOy+TdT90DrhTHYVd2GfdaHEZbWXUCYXLZR60hiTwnCl6tGY3JuwWFRtJ/ZplawmbV60fCzWDZSJwMU00GRmbwAkBjwTRhHKg2Ly4iqSrREAsdbDGUWpkTU3NS4alGZlqYyG7KiSlJ02uBq3WI3mKNzRNFnvKS4hKckIdtwaoRhja6eG6LQeFqc4uK3xYZ90YCQkGwt6t5SgDvCm456Jm3cAbSXFFfabJpcVQKVX2R6a6KxF87QOXR0jUtkTQQ3F/aZayhwq3rhsBfM7+8Ut4zWDx/UPu15PQomcoN7vQElkkJuRZIuqdQ5LP0veHhHaxb3+LarWmI+0KbvWRYbiFE/K1WuUmR9pEMXeuEFpALSQj1kq/r5ZYwMrW+fAZ+O+dwAJJe44G7+uISHd3Q+RPinbPmS+05bXaQlDWPtVPfkFrkfZ5S3e04KuaNLTWtm1zIf6oruhKK3ScZKQI4fDn07cfVrBIktL8zq1o720eZcyh4v3nZwXVq8AErfbPjwBploz4f+SH5e8Jx7nE5J13dvOJr2+ZL3Nt6NGczCXpnB6IBmrt3BrtWRJlMI0rwCICbfNRn4FS+5DyWjopmY8yYRC4NnX4AHghlupWs0hx2YCoG+FLV4lZ/VOlBqpaFlaHvzembN6B1JCkrN6uS94yhq2CwCWmpn03nqVJm2lFVuv0lmygNRFcc7J+39MDj15YbDy01/+hmG9evQw2y/go4f+DiPraX/okXlk/pDk1Xh/SJXcdX8Is+LLfP7QJvcMsI5N+/VC6tiktRX5ggWnrkyuGI0eJw8PI19GY2/72hCZxQ5Qw/W0sorcUGJbijl3ziNqdDJfdJU36XvxyMLJU5AYI9YoXeZGskaIyoPfA7HzOfghJE2zXlTwZSvA5bbN2R7ivRqvb3EyQybZ+g+0T9PJw+fUS9Uf0h7oNf/zYfh/PgzP+/X//TB8dnmO56HYfMlsOjQslbkbsr0E+pTw78bb95B+PMx+4EiFZeQu9Mthxjc/c3I2nuyTs++h+KzPl3to+Xqy/PT9GujO+HkYqB/9vA20r67Hxz/8/sO3n//8l59++fXXP759/fK3z6///6cvXz//9euXv//24+M//fHzD79/jn/7Hw==);lineShape=1;strokeColor=default;fontFamily=Helvetica;fontSize=11;fontColor=default;labelBackgroundColor=default;" parent="1" vertex="1">
          <mxGeometry x="250" y="85.25999999999999" width="742.55" height="99.74" as="geometry" />
        </mxCell>
        <mxCell id="DTVYAWzvXYTGudNab_NH-5" style="rounded=0;orthogonalLoop=1;jettySize=auto;html=1;entryX=0.5;entryY=1;entryDx=0;entryDy=0;entryPerimeter=0;exitX=0.5;exitY=1;exitDx=0;exitDy=0;exitPerimeter=0;strokeWidth=4;endArrow=none;endFill=0;strokeColor=#6382B0;" parent="1" edge="1">
          <mxGeometry relative="1" as="geometry">
            <mxPoint x="312.01" y="114" as="sourcePoint" />
            <mxPoint x="572.01" y="184.0000000000001" as="targetPoint" />
            <Array as="points">
              <mxPoint x="315" y="124" />
              <mxPoint x="532.01" y="194" />
              <mxPoint x="572.01" y="194" />
            </Array>
          </mxGeometry>
        </mxCell>
        <mxCell id="DTVYAWzvXYTGudNab_NH-8" value="" style="group" parent="1" vertex="1" connectable="0">
          <mxGeometry x="601.01" y="104" width="32" height="30" as="geometry" />
        </mxCell>
        <mxCell id="DTVYAWzvXYTGudNab_NH-6" value="" style="ellipse;whiteSpace=wrap;html=1;aspect=fixed;" parent="DTVYAWzvXYTGudNab_NH-8" vertex="1">
          <mxGeometry width="30" height="30" as="geometry" />
        </mxCell>
        <mxCell id="DTVYAWzvXYTGudNab_NH-7" value="" style="triangle;whiteSpace=wrap;html=1;" parent="DTVYAWzvXYTGudNab_NH-8" vertex="1">
          <mxGeometry x="9" y="3" width="21" height="24" as="geometry" />
        </mxCell>
        <mxCell id="DTVYAWzvXYTGudNab_NH-20" value="" style="group" parent="1" vertex="1" connectable="0">
          <mxGeometry x="282.01" y="61" width="54" height="53" as="geometry" />
        </mxCell>
        <mxCell id="DTVYAWzvXYTGudNab_NH-21" value="" style="group" parent="DTVYAWzvXYTGudNab_NH-20" vertex="1" connectable="0">
          <mxGeometry width="54" height="53" as="geometry" />
        </mxCell>
        <mxCell id="DTVYAWzvXYTGudNab_NH-18" value="" style="rounded=0;whiteSpace=wrap;html=1;fontFamily=Helvetica;fontSize=11;fontColor=default;labelBackgroundColor=default;" parent="DTVYAWzvXYTGudNab_NH-21" vertex="1">
          <mxGeometry width="54" height="31" as="geometry" />
        </mxCell>
        <mxCell id="DTVYAWzvXYTGudNab_NH-19" value="" style="rounded=0;whiteSpace=wrap;html=1;fontFamily=Helvetica;fontSize=11;labelBackgroundColor=default;fillColor=#1ba1e2;strokeColor=#006EAF;fontColor=#ffffff;" parent="DTVYAWzvXYTGudNab_NH-21" vertex="1">
          <mxGeometry y="22" width="54" height="31" as="geometry" />
        </mxCell>
        <mxCell id="DTVYAWzvXYTGudNab_NH-22" value="" style="group;fillColor=#1ba1e2;fontColor=#ffffff;strokeColor=#006EAF;" parent="1" vertex="1" connectable="0">
          <mxGeometry x="543.01" y="135" width="54" height="53" as="geometry" />
        </mxCell>
        <mxCell id="DTVYAWzvXYTGudNab_NH-23" value="" style="rounded=0;whiteSpace=wrap;html=1;fontFamily=Helvetica;fontSize=11;fontColor=default;labelBackgroundColor=default;" parent="DTVYAWzvXYTGudNab_NH-22" vertex="1">
          <mxGeometry width="54" height="31" as="geometry" />
        </mxCell>
        <mxCell id="DTVYAWzvXYTGudNab_NH-24" value="" style="rounded=0;whiteSpace=wrap;html=1;fontFamily=Helvetica;fontSize=11;labelBackgroundColor=default;fillColor=#1ba1e2;strokeColor=#006EAF;fontColor=#ffffff;" parent="DTVYAWzvXYTGudNab_NH-22" vertex="1">
          <mxGeometry y="22" width="54" height="31" as="geometry" />
        </mxCell>
        <mxCell id="DTVYAWzvXYTGudNab_NH-9" style="edgeStyle=orthogonalEdgeStyle;rounded=0;orthogonalLoop=1;jettySize=auto;html=1;strokeColor=#6382B0;strokeWidth=4;align=center;verticalAlign=middle;fontFamily=Helvetica;fontSize=11;fontColor=default;labelBackgroundColor=default;endArrow=none;endFill=0;entryX=0.796;entryY=0.452;entryDx=0;entryDy=0;entryPerimeter=0;" parent="1" source="DTVYAWzvXYTGudNab_NH-6" target="DTVYAWzvXYTGudNab_NH-24" edge="1">
          <mxGeometry relative="1" as="geometry">
            <mxPoint x="588.01" y="138" as="targetPoint" />
            <Array as="points">
              <mxPoint x="586.01" y="119" />
            </Array>
          </mxGeometry>
        </mxCell>
        <mxCell id="DTVYAWzvXYTGudNab_NH-27" value="" style="sketch=0;pointerEvents=1;shadow=0;dashed=0;html=1;strokeColor=none;labelPosition=center;verticalLabelPosition=bottom;verticalAlign=top;outlineConnect=0;align=center;shape=mxgraph.office.concepts.home;fillColor=#2072B8;fontFamily=Helvetica;fontSize=11;fontColor=default;labelBackgroundColor=default;" parent="1" vertex="1">
          <mxGeometry x="899.01" y="46" width="51" height="50" as="geometry" />
        </mxCell>
        <mxCell id="DTVYAWzvXYTGudNab_NH-28" style="edgeStyle=none;shape=connector;rounded=0;orthogonalLoop=1;jettySize=auto;html=1;strokeColor=#6382B0;strokeWidth=4;align=center;verticalAlign=middle;fontFamily=Helvetica;fontSize=11;fontColor=default;labelBackgroundColor=default;endArrow=none;endFill=0;exitX=1;exitY=1;exitDx=0;exitDy=0;" parent="1" source="DTVYAWzvXYTGudNab_NH-6" target="DTVYAWzvXYTGudNab_NH-27" edge="1">
          <mxGeometry relative="1" as="geometry">
            <Array as="points">
              <mxPoint x="676.01" y="163" />
              <mxPoint x="808.01" y="156" />
              <mxPoint x="903.01" y="110" />
            </Array>
          </mxGeometry>
        </mxCell>
        <mxCell id="DTVYAWzvXYTGudNab_NH-32" style="edgeStyle=none;shape=connector;rounded=0;orthogonalLoop=1;jettySize=auto;html=1;strokeColor=#994C00;strokeWidth=4;align=center;verticalAlign=middle;fontFamily=Helvetica;fontSize=11;fontColor=default;labelBackgroundColor=default;endArrow=none;endFill=0;entryX=0;entryY=0.25;entryDx=0;entryDy=0;" parent="1" source="DTVYAWzvXYTGudNab_NH-29" target="DTVYAWzvXYTGudNab_NH-33" edge="1">
          <mxGeometry relative="1" as="geometry">
            <mxPoint x="279.73" y="337.5" as="targetPoint" />
            <Array as="points">
              <mxPoint x="95.73" y="330.5" />
              <mxPoint x="201.72999999999996" y="348.5" />
            </Array>
          </mxGeometry>
        </mxCell>
        <mxCell id="DTVYAWzvXYTGudNab_NH-29" value="" style="sketch=0;pointerEvents=1;shadow=0;dashed=0;html=1;strokeColor=none;labelPosition=center;verticalLabelPosition=bottom;verticalAlign=top;outlineConnect=0;align=center;shape=mxgraph.office.concepts.home;fillColor=#2072B8;fontFamily=Helvetica;fontSize=11;fontColor=default;labelBackgroundColor=default;" parent="1" vertex="1">
          <mxGeometry x="47.730000000000004" y="261.5" width="51" height="50" as="geometry" />
        </mxCell>
        <mxCell id="DTVYAWzvXYTGudNab_NH-30" value="Gravitaire" style="text;html=1;align=center;verticalAlign=middle;whiteSpace=wrap;rounded=0;fontFamily=Georgia;fontSize=18;fontColor=default;labelBackgroundColor=default;" parent="1" vertex="1">
          <mxGeometry x="254.51" y="134" width="109" height="38" as="geometry" />
        </mxCell>
        <mxCell id="DTVYAWzvXYTGudNab_NH-31" value="Refoulement" style="text;html=1;align=center;verticalAlign=middle;whiteSpace=wrap;rounded=0;fontFamily=Georgia;fontSize=18;fontColor=default;labelBackgroundColor=default;" parent="1" vertex="1">
          <mxGeometry x="719.01" y="159" width="109" height="38" as="geometry" />
        </mxCell>
        <mxCell id="DTVYAWzvXYTGudNab_NH-33" value="" style="rounded=1;whiteSpace=wrap;html=1;fontFamily=Helvetica;fontSize=11;fontColor=default;labelBackgroundColor=default;" parent="1" vertex="1">
          <mxGeometry x="276.73" y="337.5" width="42" height="76" as="geometry" />
        </mxCell>
        <mxCell id="DTVYAWzvXYTGudNab_NH-34" value="" style="group" parent="1" vertex="1" connectable="0">
          <mxGeometry x="283.73" y="372.5" width="32" height="30" as="geometry" />
        </mxCell>
        <mxCell id="DTVYAWzvXYTGudNab_NH-35" value="" style="ellipse;whiteSpace=wrap;html=1;aspect=fixed;" parent="DTVYAWzvXYTGudNab_NH-34" vertex="1">
          <mxGeometry width="30" height="30" as="geometry" />
        </mxCell>
        <mxCell id="DTVYAWzvXYTGudNab_NH-36" value="" style="triangle;whiteSpace=wrap;html=1;" parent="DTVYAWzvXYTGudNab_NH-34" vertex="1">
          <mxGeometry x="8" y="3" width="21" height="24" as="geometry" />
        </mxCell>
        <mxCell id="DTVYAWzvXYTGudNab_NH-41" value="" style="group" parent="1" vertex="1" connectable="0">
          <mxGeometry x="518.23" y="268.5" width="31.5" height="43" as="geometry" />
        </mxCell>
        <mxCell id="DTVYAWzvXYTGudNab_NH-39" value="" style="rounded=1;whiteSpace=wrap;html=1;fontFamily=Helvetica;fontSize=11;fontColor=default;labelBackgroundColor=default;" parent="DTVYAWzvXYTGudNab_NH-41" vertex="1">
          <mxGeometry width="31.5" height="40" as="geometry" />
        </mxCell>
        <mxCell id="DTVYAWzvXYTGudNab_NH-40" value="" style="rounded=1;whiteSpace=wrap;html=1;fontFamily=Helvetica;fontSize=11;fontColor=default;labelBackgroundColor=default;fillColor=#994C00;" parent="DTVYAWzvXYTGudNab_NH-41" vertex="1">
          <mxGeometry y="22" width="31.5" height="21" as="geometry" />
        </mxCell>
        <mxCell id="DTVYAWzvXYTGudNab_NH-42" value="" style="group" parent="1" vertex="1" connectable="0">
          <mxGeometry x="693.73" y="318.5" width="31.5" height="43" as="geometry" />
        </mxCell>
        <mxCell id="DTVYAWzvXYTGudNab_NH-43" value="" style="rounded=1;whiteSpace=wrap;html=1;fontFamily=Helvetica;fontSize=11;fontColor=default;labelBackgroundColor=default;" parent="DTVYAWzvXYTGudNab_NH-42" vertex="1">
          <mxGeometry width="31.5" height="40" as="geometry" />
        </mxCell>
        <mxCell id="DTVYAWzvXYTGudNab_NH-44" value="" style="rounded=1;whiteSpace=wrap;html=1;fontFamily=Helvetica;fontSize=11;fontColor=default;labelBackgroundColor=default;fillColor=#994C00;" parent="DTVYAWzvXYTGudNab_NH-42" vertex="1">
          <mxGeometry y="22" width="31.5" height="21" as="geometry" />
        </mxCell>
        <mxCell id="DTVYAWzvXYTGudNab_NH-45" style="edgeStyle=none;shape=connector;rounded=0;orthogonalLoop=1;jettySize=auto;html=1;strokeColor=#994C00;strokeWidth=4;align=center;verticalAlign=middle;fontFamily=Helvetica;fontSize=11;fontColor=default;labelBackgroundColor=default;endArrow=none;endFill=0;" parent="1" source="DTVYAWzvXYTGudNab_NH-40" target="DTVYAWzvXYTGudNab_NH-44" edge="1">
          <mxGeometry relative="1" as="geometry">
            <Array as="points">
              <mxPoint x="535.73" y="317.5" />
              <mxPoint x="598.01" y="363.5" />
            </Array>
          </mxGeometry>
        </mxCell>
        <mxCell id="DTVYAWzvXYTGudNab_NH-46" value="Gravitaire" style="text;html=1;align=center;verticalAlign=middle;whiteSpace=wrap;rounded=0;fontFamily=Georgia;fontSize=18;fontColor=default;labelBackgroundColor=default;" parent="1" vertex="1">
          <mxGeometry x="112.73" y="343.5" width="109" height="38" as="geometry" />
        </mxCell>
        <mxCell id="DTVYAWzvXYTGudNab_NH-47" value="Refoulement" style="text;html=1;align=center;verticalAlign=middle;whiteSpace=wrap;rounded=0;fontFamily=Georgia;fontSize=18;fontColor=default;labelBackgroundColor=default;" parent="1" vertex="1">
          <mxGeometry x="360.73" y="319.5" width="109" height="38" as="geometry" />
        </mxCell>
        <mxCell id="DTVYAWzvXYTGudNab_NH-48" value="forcée" style="text;html=1;align=center;verticalAlign=middle;whiteSpace=wrap;rounded=0;fontFamily=Georgia;fontSize=18;fontColor=default;labelBackgroundColor=default;" parent="1" vertex="1">
          <mxGeometry x="556.01" y="318.5" width="109" height="38" as="geometry" />
        </mxCell>
        <mxCell id="DTVYAWzvXYTGudNab_NH-37" style="edgeStyle=none;shape=connector;rounded=0;orthogonalLoop=1;jettySize=auto;html=1;strokeColor=#994C00;strokeWidth=4;align=center;verticalAlign=middle;fontFamily=Helvetica;fontSize=11;fontColor=default;labelBackgroundColor=default;endArrow=none;endFill=0;exitX=0.5;exitY=0;exitDx=0;exitDy=0;entryX=0.175;entryY=0.35;entryDx=0;entryDy=0;entryPerimeter=0;" parent="1" source="DTVYAWzvXYTGudNab_NH-35" target="DTVYAWzvXYTGudNab_NH-39" edge="1">
          <mxGeometry relative="1" as="geometry">
            <mxPoint x="523.73" y="285.5" as="targetPoint" />
            <Array as="points">
              <mxPoint x="299.73" y="344.5" />
              <mxPoint x="382.01" y="313.5" />
              <mxPoint x="451.01" y="297.5" />
              <mxPoint x="503.73" y="282.5" />
            </Array>
          </mxGeometry>
        </mxCell>
        <mxCell id="DTVYAWzvXYTGudNab_NH-51" value="" style="group" parent="1" vertex="1" connectable="0">
          <mxGeometry x="897.01" y="281.5" width="43" height="43" as="geometry" />
        </mxCell>
        <mxCell id="DTVYAWzvXYTGudNab_NH-52" value="" style="rounded=1;whiteSpace=wrap;html=1;fontFamily=Helvetica;fontSize=11;fontColor=default;labelBackgroundColor=default;" parent="DTVYAWzvXYTGudNab_NH-51" vertex="1">
          <mxGeometry width="39.838235294117645" height="40" as="geometry" />
        </mxCell>
        <mxCell id="DTVYAWzvXYTGudNab_NH-59" value="" style="ellipse;whiteSpace=wrap;html=1;aspect=fixed;fontFamily=Helvetica;fontSize=11;fontColor=default;labelBackgroundColor=default;" parent="DTVYAWzvXYTGudNab_NH-51" vertex="1">
          <mxGeometry x="5.385294117647056" y="4.999999999999968" width="30" height="30" as="geometry" />
        </mxCell>
        <mxCell id="DTVYAWzvXYTGudNab_NH-54" value="" style="group" parent="DTVYAWzvXYTGudNab_NH-51" vertex="1" connectable="0">
          <mxGeometry x="10.999411764705883" y="17" width="32.857058823529435" height="23.909999999999968" as="geometry" />
        </mxCell>
        <mxCell id="DTVYAWzvXYTGudNab_NH-55" value="" style="ellipse;whiteSpace=wrap;html=1;aspect=fixed;" parent="DTVYAWzvXYTGudNab_NH-54" vertex="1">
          <mxGeometry width="17.8125" height="17.8125" as="geometry" />
        </mxCell>
        <mxCell id="DTVYAWzvXYTGudNab_NH-56" value="" style="triangle;whiteSpace=wrap;html=1;" parent="DTVYAWzvXYTGudNab_NH-54" vertex="1">
          <mxGeometry x="6" y="2" width="11" height="14" as="geometry" />
        </mxCell>
        <mxCell id="DTVYAWzvXYTGudNab_NH-57" style="edgeStyle=none;shape=connector;rounded=0;orthogonalLoop=1;jettySize=auto;html=1;entryX=0;entryY=0.5;entryDx=0;entryDy=0;strokeColor=#994C00;strokeWidth=4;align=center;verticalAlign=middle;fontFamily=Helvetica;fontSize=11;fontColor=default;labelBackgroundColor=default;endArrow=none;endFill=0;" parent="1" source="DTVYAWzvXYTGudNab_NH-44" target="DTVYAWzvXYTGudNab_NH-55" edge="1">
          <mxGeometry relative="1" as="geometry">
            <Array as="points">
              <mxPoint x="762.01" y="346.5" />
              <mxPoint x="800.01" y="334.5" />
              <mxPoint x="834.01" y="337.5" />
              <mxPoint x="870.01" y="327.5" />
              <mxPoint x="892.01" y="307.5" />
            </Array>
          </mxGeometry>
        </mxCell>
        <mxCell id="DTVYAWzvXYTGudNab_NH-58" value="sous-vide" style="text;html=1;align=center;verticalAlign=middle;whiteSpace=wrap;rounded=0;fontFamily=Georgia;fontSize=18;fontColor=default;labelBackgroundColor=default;" parent="1" vertex="1">
          <mxGeometry x="767.55" y="337.5" width="109" height="38" as="geometry" />
        </mxCell>
        <mxCell id="DTVYAWzvXYTGudNab_NH-64" style="edgeStyle=none;shape=connector;rounded=0;orthogonalLoop=1;jettySize=auto;html=1;strokeColor=#6382B0;strokeWidth=4;align=center;verticalAlign=middle;fontFamily=Helvetica;fontSize=11;fontColor=default;labelBackgroundColor=default;endArrow=none;endFill=0;" parent="1" source="DTVYAWzvXYTGudNab_NH-61" edge="1">
          <mxGeometry relative="1" as="geometry">
            <mxPoint x="75.5" y="175.28571428571433" as="targetPoint" />
          </mxGeometry>
        </mxCell>
        <mxCell id="DTVYAWzvXYTGudNab_NH-61" value="" style="sketch=0;pointerEvents=1;shadow=0;dashed=0;html=1;strokeColor=none;labelPosition=center;verticalLabelPosition=bottom;verticalAlign=top;outlineConnect=0;align=center;shape=mxgraph.office.concepts.home;fillColor=#2072B8;fontFamily=Helvetica;fontSize=11;fontColor=default;labelBackgroundColor=default;" parent="1" vertex="1">
          <mxGeometry x="55" y="123" width="41" height="42" as="geometry" />
        </mxCell>
        <mxCell id="DTVYAWzvXYTGudNab_NH-65" style="edgeStyle=none;shape=connector;rounded=0;orthogonalLoop=1;jettySize=auto;html=1;strokeColor=#6382B0;strokeWidth=4;align=center;verticalAlign=middle;fontFamily=Helvetica;fontSize=11;fontColor=default;labelBackgroundColor=default;endArrow=none;endFill=0;" parent="1" source="DTVYAWzvXYTGudNab_NH-62" edge="1">
          <mxGeometry relative="1" as="geometry">
            <mxPoint x="123.5" y="173.57142857142856" as="targetPoint" />
          </mxGeometry>
        </mxCell>
        <mxCell id="DTVYAWzvXYTGudNab_NH-62" value="" style="sketch=0;pointerEvents=1;shadow=0;dashed=0;html=1;strokeColor=none;labelPosition=center;verticalLabelPosition=bottom;verticalAlign=top;outlineConnect=0;align=center;shape=mxgraph.office.concepts.home;fillColor=#2072B8;fontFamily=Helvetica;fontSize=11;fontColor=default;labelBackgroundColor=default;" parent="1" vertex="1">
          <mxGeometry x="103" y="123" width="41" height="42" as="geometry" />
        </mxCell>
        <mxCell id="DTVYAWzvXYTGudNab_NH-63" style="edgeStyle=none;shape=connector;rounded=0;orthogonalLoop=1;jettySize=auto;html=1;strokeColor=#6382B0;strokeWidth=4;align=center;verticalAlign=middle;fontFamily=Helvetica;fontSize=11;fontColor=default;labelBackgroundColor=default;endArrow=none;endFill=0;" parent="1" source="DTVYAWzvXYTGudNab_NH-19" edge="1">
          <mxGeometry relative="1" as="geometry">
            <mxPoint x="47" y="176" as="targetPoint" />
            <Array as="points">
              <mxPoint x="304" y="129" />
              <mxPoint x="144" y="173" />
            </Array>
          </mxGeometry>
        </mxCell>
        <mxCell id="DTVYAWzvXYTGudNab_NH-66" value="transport" style="text;html=1;align=center;verticalAlign=middle;whiteSpace=wrap;rounded=0;fontFamily=Helvetica;fontSize=11;fontColor=#A9C4EB;labelBackgroundColor=none;rotation=15;" parent="1" vertex="1">
          <mxGeometry x="397" y="135" width="60" height="30" as="geometry" />
        </mxCell>
        <mxCell id="DTVYAWzvXYTGudNab_NH-67" value="distribution" style="text;html=1;align=center;verticalAlign=middle;whiteSpace=wrap;rounded=0;fontFamily=Helvetica;fontSize=11;fontColor=#A9C4EB;labelBackgroundColor=none;rotation=-15;" parent="1" vertex="1">
          <mxGeometry x="194.51" y="129" width="60" height="30" as="geometry" />
        </mxCell>
        <mxCell id="DTVYAWzvXYTGudNab_NH-94" value="" style="edgeStyle=none;shape=connector;rounded=0;orthogonalLoop=1;jettySize=auto;html=1;strokeColor=#6382B0;strokeWidth=4;align=center;verticalAlign=middle;fontFamily=Helvetica;fontSize=11;fontColor=default;labelBackgroundColor=default;endArrow=none;endFill=0;" parent="1" source="DTVYAWzvXYTGudNab_NH-68" edge="1">
          <mxGeometry relative="1" as="geometry">
            <mxPoint x="605" y="640.13" as="targetPoint" />
          </mxGeometry>
        </mxCell>
        <mxCell id="DTVYAWzvXYTGudNab_NH-68" value="" style="sketch=0;pointerEvents=1;shadow=0;dashed=0;html=1;strokeColor=none;labelPosition=center;verticalLabelPosition=bottom;verticalAlign=top;outlineConnect=0;align=center;shape=mxgraph.office.concepts.home;fillColor=#2072B8;fontFamily=Helvetica;fontSize=11;fontColor=default;labelBackgroundColor=default;" parent="1" vertex="1">
          <mxGeometry x="588" y="599.13" width="33.99" height="35" as="geometry" />
        </mxCell>
        <mxCell id="DTVYAWzvXYTGudNab_NH-95" style="edgeStyle=none;shape=connector;rounded=0;orthogonalLoop=1;jettySize=auto;html=1;strokeColor=#6382B0;strokeWidth=4;align=center;verticalAlign=middle;fontFamily=Helvetica;fontSize=11;fontColor=default;labelBackgroundColor=default;endArrow=none;endFill=0;" parent="1" source="DTVYAWzvXYTGudNab_NH-69" edge="1">
          <mxGeometry relative="1" as="geometry">
            <mxPoint x="643.9750000000001" y="639.63" as="targetPoint" />
          </mxGeometry>
        </mxCell>
        <mxCell id="DTVYAWzvXYTGudNab_NH-69" value="" style="sketch=0;pointerEvents=1;shadow=0;dashed=0;html=1;strokeColor=none;labelPosition=center;verticalLabelPosition=bottom;verticalAlign=top;outlineConnect=0;align=center;shape=mxgraph.office.concepts.home;fillColor=#2072B8;fontFamily=Helvetica;fontSize=11;fontColor=default;labelBackgroundColor=default;" parent="1" vertex="1">
          <mxGeometry x="626.98" y="599.13" width="33.99" height="35" as="geometry" />
        </mxCell>
        <mxCell id="DTVYAWzvXYTGudNab_NH-96" style="edgeStyle=none;shape=connector;rounded=0;orthogonalLoop=1;jettySize=auto;html=1;strokeColor=#6382B0;strokeWidth=4;align=center;verticalAlign=middle;fontFamily=Helvetica;fontSize=11;fontColor=default;labelBackgroundColor=default;endArrow=none;endFill=0;" parent="1" source="DTVYAWzvXYTGudNab_NH-70" edge="1">
          <mxGeometry relative="1" as="geometry">
            <mxPoint x="682.9750000000001" y="638.7966666666666" as="targetPoint" />
          </mxGeometry>
        </mxCell>
        <mxCell id="DTVYAWzvXYTGudNab_NH-70" value="" style="sketch=0;pointerEvents=1;shadow=0;dashed=0;html=1;strokeColor=none;labelPosition=center;verticalLabelPosition=bottom;verticalAlign=top;outlineConnect=0;align=center;shape=mxgraph.office.concepts.home;fillColor=#2072B8;fontFamily=Helvetica;fontSize=11;fontColor=default;labelBackgroundColor=default;" parent="1" vertex="1">
          <mxGeometry x="665.98" y="590.13" width="33.99" height="35" as="geometry" />
        </mxCell>
        <mxCell id="DTVYAWzvXYTGudNab_NH-98" style="edgeStyle=none;shape=connector;rounded=0;orthogonalLoop=1;jettySize=auto;html=1;strokeColor=#6382B0;strokeWidth=4;align=center;verticalAlign=middle;fontFamily=Helvetica;fontSize=11;fontColor=default;labelBackgroundColor=default;endArrow=none;endFill=0;" parent="1" source="DTVYAWzvXYTGudNab_NH-71" edge="1">
          <mxGeometry relative="1" as="geometry">
            <mxPoint x="808.5450000000001" y="533.0530769230769" as="targetPoint" />
          </mxGeometry>
        </mxCell>
        <mxCell id="DTVYAWzvXYTGudNab_NH-71" value="" style="sketch=0;pointerEvents=1;shadow=0;dashed=0;html=1;strokeColor=none;labelPosition=center;verticalLabelPosition=bottom;verticalAlign=top;outlineConnect=0;align=center;shape=mxgraph.office.concepts.home;fillColor=#2072B8;fontFamily=Helvetica;fontSize=11;fontColor=default;labelBackgroundColor=default;" parent="1" vertex="1">
          <mxGeometry x="791.55" y="486.13" width="33.99" height="35" as="geometry" />
        </mxCell>
        <mxCell id="DTVYAWzvXYTGudNab_NH-99" style="edgeStyle=none;shape=connector;rounded=0;orthogonalLoop=1;jettySize=auto;html=1;strokeColor=#6382B0;strokeWidth=4;align=center;verticalAlign=middle;fontFamily=Helvetica;fontSize=11;fontColor=default;labelBackgroundColor=default;endArrow=none;endFill=0;" parent="1" source="DTVYAWzvXYTGudNab_NH-73" edge="1">
          <mxGeometry relative="1" as="geometry">
            <mxPoint x="848.9949999999999" y="533.0530769230769" as="targetPoint" />
          </mxGeometry>
        </mxCell>
        <mxCell id="DTVYAWzvXYTGudNab_NH-73" value="" style="sketch=0;pointerEvents=1;shadow=0;dashed=0;html=1;strokeColor=none;labelPosition=center;verticalLabelPosition=bottom;verticalAlign=top;outlineConnect=0;align=center;shape=mxgraph.office.concepts.home;fillColor=#2072B8;fontFamily=Helvetica;fontSize=11;fontColor=default;labelBackgroundColor=default;" parent="1" vertex="1">
          <mxGeometry x="832" y="488.13" width="33.99" height="35" as="geometry" />
        </mxCell>
        <mxCell id="DTVYAWzvXYTGudNab_NH-75" value="" style="rounded=0;whiteSpace=wrap;html=1;fontFamily=Helvetica;fontSize=11;labelBackgroundColor=default;fillColor=#1ba1e2;strokeColor=#006EAF;fontColor=#ffffff;" parent="1" vertex="1">
          <mxGeometry x="490" y="532.13" width="38" height="27" as="geometry" />
        </mxCell>
        <mxCell id="DTVYAWzvXYTGudNab_NH-76" value="" style="shape=collate;whiteSpace=wrap;html=1;fontFamily=Helvetica;fontSize=11;fontColor=default;labelBackgroundColor=default;" parent="1" vertex="1">
          <mxGeometry x="490" y="559.13" width="38" height="63" as="geometry" />
        </mxCell>
        <mxCell id="DTVYAWzvXYTGudNab_NH-78" style="edgeStyle=none;shape=connector;rounded=0;orthogonalLoop=1;jettySize=auto;html=1;entryX=0.5;entryY=0;entryDx=0;entryDy=0;strokeColor=#6382B0;strokeWidth=4;align=center;verticalAlign=middle;fontFamily=Helvetica;fontSize=11;fontColor=default;labelBackgroundColor=default;endArrow=none;endFill=0;" parent="1" source="DTVYAWzvXYTGudNab_NH-77" target="DTVYAWzvXYTGudNab_NH-76" edge="1">
          <mxGeometry relative="1" as="geometry">
            <Array as="points">
              <mxPoint x="407" y="559.13" />
              <mxPoint x="476" y="628.13" />
              <mxPoint x="506" y="627.13" />
            </Array>
          </mxGeometry>
        </mxCell>
        <mxCell id="DTVYAWzvXYTGudNab_NH-77" value="" style="rounded=0;whiteSpace=wrap;html=1;fontFamily=Helvetica;fontSize=11;labelBackgroundColor=default;fillColor=#1ba1e2;strokeColor=#006EAF;fontColor=#ffffff;" parent="1" vertex="1">
          <mxGeometry x="287" y="496.13" width="100" height="33" as="geometry" />
        </mxCell>
        <mxCell id="DTVYAWzvXYTGudNab_NH-83" value="" style="group" parent="1" vertex="1" connectable="0">
          <mxGeometry x="207" y="609.13" width="32" height="30" as="geometry" />
        </mxCell>
        <mxCell id="DTVYAWzvXYTGudNab_NH-84" value="" style="ellipse;whiteSpace=wrap;html=1;aspect=fixed;" parent="DTVYAWzvXYTGudNab_NH-83" vertex="1">
          <mxGeometry width="30" height="30" as="geometry" />
        </mxCell>
        <mxCell id="DTVYAWzvXYTGudNab_NH-85" value="" style="triangle;whiteSpace=wrap;html=1;" parent="DTVYAWzvXYTGudNab_NH-83" vertex="1">
          <mxGeometry x="8" y="3" width="21" height="24" as="geometry" />
        </mxCell>
        <mxCell id="DTVYAWzvXYTGudNab_NH-86" style="edgeStyle=none;shape=connector;rounded=0;orthogonalLoop=1;jettySize=auto;html=1;exitX=1;exitY=0;exitDx=0;exitDy=0;strokeColor=#6382B0;strokeWidth=4;align=center;verticalAlign=middle;fontFamily=Helvetica;fontSize=11;fontColor=default;labelBackgroundColor=default;endArrow=none;endFill=0;" parent="1" source="DTVYAWzvXYTGudNab_NH-84" edge="1">
          <mxGeometry relative="1" as="geometry">
            <mxPoint x="311" y="496.13" as="targetPoint" />
            <Array as="points">
              <mxPoint x="283" y="490.13" />
              <mxPoint x="304" y="490.13" />
            </Array>
          </mxGeometry>
        </mxCell>
        <mxCell id="DTVYAWzvXYTGudNab_NH-88" style="edgeStyle=none;shape=connector;rounded=0;orthogonalLoop=1;jettySize=auto;html=1;entryX=0;entryY=0.5;entryDx=0;entryDy=0;strokeColor=#6382B0;strokeWidth=4;align=center;verticalAlign=middle;fontFamily=Helvetica;fontSize=11;fontColor=default;labelBackgroundColor=default;endArrow=none;endFill=0;" parent="1" source="DTVYAWzvXYTGudNab_NH-87" target="DTVYAWzvXYTGudNab_NH-84" edge="1">
          <mxGeometry relative="1" as="geometry">
            <Array as="points">
              <mxPoint x="111" y="619.13" />
              <mxPoint x="160" y="622.13" />
            </Array>
          </mxGeometry>
        </mxCell>
        <mxCell id="DTVYAWzvXYTGudNab_NH-87" value="" style="rounded=1;whiteSpace=wrap;html=1;strokeWidth=2;fillWeight=4;hachureGap=8;hachureAngle=45;fillColor=#1ba1e2;sketch=1;fontFamily=Helvetica;fontSize=11;fontColor=default;labelBackgroundColor=default;" parent="1" vertex="1">
          <mxGeometry x="40" y="573.13" width="79" height="35" as="geometry" />
        </mxCell>
        <mxCell id="DTVYAWzvXYTGudNab_NH-89" value="" style="group" parent="1" vertex="1" connectable="0">
          <mxGeometry x="743" y="623.13" width="17" height="16" as="geometry" />
        </mxCell>
        <mxCell id="DTVYAWzvXYTGudNab_NH-90" value="" style="ellipse;whiteSpace=wrap;html=1;aspect=fixed;" parent="DTVYAWzvXYTGudNab_NH-89" vertex="1">
          <mxGeometry width="15.789473684210526" height="15.789473684210526" as="geometry" />
        </mxCell>
        <mxCell id="DTVYAWzvXYTGudNab_NH-97" style="edgeStyle=none;shape=connector;rounded=0;orthogonalLoop=1;jettySize=auto;html=1;strokeColor=#6382B0;strokeWidth=4;align=center;verticalAlign=middle;fontFamily=Helvetica;fontSize=11;fontColor=default;labelBackgroundColor=default;endArrow=none;endFill=0;" parent="DTVYAWzvXYTGudNab_NH-89" source="DTVYAWzvXYTGudNab_NH-91" edge="1">
          <mxGeometry relative="1" as="geometry">
            <mxPoint x="135" y="-90" as="targetPoint" />
            <Array as="points">
              <mxPoint x="60" y="-90" />
            </Array>
          </mxGeometry>
        </mxCell>
        <mxCell id="DTVYAWzvXYTGudNab_NH-91" value="" style="triangle;whiteSpace=wrap;html=1;" parent="DTVYAWzvXYTGudNab_NH-89" vertex="1">
          <mxGeometry x="4.25" y="1.5999999999999999" width="11.15625" height="12.799999999999999" as="geometry" />
        </mxCell>
        <mxCell id="DTVYAWzvXYTGudNab_NH-92" style="edgeStyle=none;shape=connector;rounded=0;orthogonalLoop=1;jettySize=auto;html=1;entryX=0;entryY=0.5;entryDx=0;entryDy=0;strokeColor=#6382B0;strokeWidth=4;align=center;verticalAlign=middle;fontFamily=Helvetica;fontSize=11;fontColor=default;labelBackgroundColor=default;endArrow=none;endFill=0;" parent="1" source="DTVYAWzvXYTGudNab_NH-75" target="DTVYAWzvXYTGudNab_NH-90" edge="1">
          <mxGeometry relative="1" as="geometry">
            <Array as="points">
              <mxPoint x="514" y="627.13" />
              <mxPoint x="584" y="640.13" />
              <mxPoint x="700" y="639.13" />
            </Array>
          </mxGeometry>
        </mxCell>
        <mxCell id="DTVYAWzvXYTGudNab_NH-101" style="edgeStyle=none;shape=connector;rounded=0;orthogonalLoop=1;jettySize=auto;html=1;strokeColor=#6382B0;strokeWidth=4;align=center;verticalAlign=middle;fontFamily=Helvetica;fontSize=11;fontColor=default;labelBackgroundColor=default;endArrow=none;endFill=0;" parent="1" source="DTVYAWzvXYTGudNab_NH-100" edge="1">
          <mxGeometry relative="1" as="geometry">
            <mxPoint x="842.5349999999999" y="532.6684615384615" as="targetPoint" />
          </mxGeometry>
        </mxCell>
        <mxCell id="DTVYAWzvXYTGudNab_NH-100" value="" style="sketch=0;pointerEvents=1;shadow=0;dashed=0;html=1;strokeColor=none;labelPosition=center;verticalLabelPosition=bottom;verticalAlign=top;outlineConnect=0;align=center;shape=mxgraph.office.concepts.home;fillColor=#2072B8;fontFamily=Helvetica;fontSize=11;fontColor=default;labelBackgroundColor=default;" parent="1" vertex="1">
          <mxGeometry x="825.54" y="538.13" width="33.99" height="35" as="geometry" />
        </mxCell>
        <mxCell id="DTVYAWzvXYTGudNab_NH-104" value="Captage" style="text;html=1;align=center;verticalAlign=middle;whiteSpace=wrap;rounded=0;fontFamily=Helvetica;fontSize=11;fontColor=#A9C4EB;labelBackgroundColor=none;rotation=0;" parent="1" vertex="1">
          <mxGeometry x="40" y="604.13" width="60" height="30" as="geometry" />
        </mxCell>
        <mxCell id="DTVYAWzvXYTGudNab_NH-105" value="Usine pompage" style="text;html=1;align=center;verticalAlign=middle;whiteSpace=wrap;rounded=0;fontFamily=Helvetica;fontSize=11;fontColor=#A9C4EB;labelBackgroundColor=none;rotation=0;" parent="1" vertex="1">
          <mxGeometry x="191.73000000000002" y="639.13" width="60" height="30" as="geometry" />
        </mxCell>
        <mxCell id="DTVYAWzvXYTGudNab_NH-106" value="Réservoir 1" style="text;html=1;align=center;verticalAlign=middle;whiteSpace=wrap;rounded=0;fontFamily=Helvetica;fontSize=11;fontColor=#A9C4EB;labelBackgroundColor=none;rotation=0;" parent="1" vertex="1">
          <mxGeometry x="307" y="532.13" width="60" height="30" as="geometry" />
        </mxCell>
        <mxCell id="DTVYAWzvXYTGudNab_NH-107" value="Chateau d&#39;eau" style="text;html=1;align=center;verticalAlign=middle;whiteSpace=wrap;rounded=0;fontFamily=Helvetica;fontSize=11;fontColor=#A9C4EB;labelBackgroundColor=none;rotation=0;" parent="1" vertex="1">
          <mxGeometry x="479" y="629.13" width="60" height="30" as="geometry" />
        </mxCell>
        <mxCell id="DTVYAWzvXYTGudNab_NH-108" value="Surpreseur&lt;div&gt;&lt;br&gt;&lt;/div&gt;" style="text;html=1;align=center;verticalAlign=middle;whiteSpace=wrap;rounded=0;fontFamily=Helvetica;fontSize=11;fontColor=#A9C4EB;labelBackgroundColor=none;rotation=0;" parent="1" vertex="1">
          <mxGeometry x="721.5" y="639.13" width="60" height="30" as="geometry" />
        </mxCell>
        <mxCell id="DTVYAWzvXYTGudNab_NH-109" value="Gravitaire" style="text;html=1;align=center;verticalAlign=middle;whiteSpace=wrap;rounded=0;fontFamily=Georgia;fontSize=18;fontColor=default;labelBackgroundColor=default;" parent="1" vertex="1">
          <mxGeometry x="86.00000000000003" y="623.13" width="109" height="38" as="geometry" />
        </mxCell>
        <mxCell id="DTVYAWzvXYTGudNab_NH-110" value="Refoulement" style="text;html=1;align=center;verticalAlign=middle;whiteSpace=wrap;rounded=0;fontFamily=Georgia;fontSize=18;fontColor=default;labelBackgroundColor=none;" parent="1" vertex="1">
          <mxGeometry x="154.51000000000002" y="496.13" width="109" height="38" as="geometry" />
        </mxCell>
        <mxCell id="DTVYAWzvXYTGudNab_NH-111" value="Gravitaire" style="text;html=1;align=center;verticalAlign=middle;whiteSpace=wrap;rounded=0;fontFamily=Georgia;fontSize=18;fontColor=default;labelBackgroundColor=default;" parent="1" vertex="1">
          <mxGeometry x="339" y="582.13" width="109" height="38" as="geometry" />
        </mxCell>
        <mxCell id="DTVYAWzvXYTGudNab_NH-112" value="Gravitaire" style="text;html=1;align=center;verticalAlign=middle;whiteSpace=wrap;rounded=0;fontFamily=Georgia;fontSize=18;fontColor=default;labelBackgroundColor=default;" parent="1" vertex="1">
          <mxGeometry x="580.01" y="639.13" width="109" height="38" as="geometry" />
        </mxCell>
        <mxCell id="DTVYAWzvXYTGudNab_NH-113" value="Refoulement" style="text;html=1;align=center;verticalAlign=middle;whiteSpace=wrap;rounded=0;fontFamily=Georgia;fontSize=18;fontColor=default;labelBackgroundColor=default;" parent="1" vertex="1">
          <mxGeometry x="781.5" y="573.13" width="109" height="38" as="geometry" />
        </mxCell>
        <mxCell id="k7kUy0fgQ6StKDqHc0Xa-1" value="&lt;div&gt;pompage sous vide&lt;/div&gt;" style="text;html=1;align=center;verticalAlign=middle;whiteSpace=wrap;rounded=0;fontFamily=Helvetica;fontSize=11;fontColor=#A9C4EB;labelBackgroundColor=none;rotation=0;" parent="1" vertex="1">
          <mxGeometry x="888.51" y="331.5" width="60" height="30" as="geometry" />
        </mxCell>
      </root>
    </mxGraphModel>
  </diagram>
</mxfile>
